<svg width="181" height="42" viewBox="0 0 181 42" fill="none" xmlns="http://www.w3.org/2000/svg">
<path d="M61.7885 21.4648C61.7885 19.3615 62.1841 17.5574 62.9752 16.0524C63.7856 14.528 64.9433 13.3703 66.4484 12.5792C67.9534 11.7688 69.7479 11.3635 71.8318 11.3635C73.9157 11.3635 75.7102 11.7688 77.2153 12.5792C78.7203 13.3703 79.8684 14.528 80.6595 16.0524C81.47 17.5574 81.8752 19.3615 81.8752 21.4648V32.0001H75.0445V21.4648C75.0445 20.2298 74.7551 19.2651 74.1762 18.5704C73.6167 17.8758 72.8352 17.5285 71.8318 17.5285C70.8285 17.5285 70.0373 17.8758 69.4585 18.5704C68.8989 19.2651 68.6191 20.2298 68.6191 21.4648V32.0001H61.7885V21.4648ZM84.2026 21.4648C84.2026 19.3615 84.5982 17.5574 85.3893 16.0524C86.1997 14.528 87.3574 13.3703 88.8625 12.5792C90.3675 11.7688 92.162 11.3635 94.2459 11.3635C96.3299 11.3635 98.1243 11.7688 99.6294 12.5792C101.134 13.3703 102.283 14.528 103.074 16.0524C103.884 17.5574 104.289 19.3615 104.289 21.4648V32.0001H97.4586V21.4648C97.4586 20.2298 97.1692 19.2651 96.5903 18.5704C96.0308 17.8758 95.2493 17.5285 94.2459 17.5285C93.2426 17.5285 92.4514 17.8758 91.8726 18.5704C91.313 19.2651 91.0332 20.2298 91.0332 21.4648V32.0001H84.2026V21.4648ZM101.366 23.6644V28.7585H87.5021V23.6644H101.366ZM106.617 11.7398H113.332V32.0001H106.617V11.7398ZM112.984 27.1955H125.054V32.0001H112.984V27.1955ZM127.363 21.4648C127.363 19.3615 127.759 17.5574 128.55 16.0524C129.36 14.528 130.518 13.3703 132.023 12.5792C133.528 11.7688 135.323 11.3635 137.407 11.3635C139.49 11.3635 141.285 11.7688 142.79 12.5792C144.295 13.3703 145.443 14.528 146.234 16.0524C147.045 17.5574 147.45 19.3615 147.45 21.4648V32.0001H140.619V21.4648C140.619 20.2298 140.33 19.2651 139.751 18.5704C139.191 17.8758 138.41 17.5285 137.407 17.5285C136.403 17.5285 135.612 17.8758 135.033 18.5704C134.474 19.2651 134.194 20.2298 134.194 21.4648V32.0001H127.363V21.4648ZM144.527 23.6644V28.7585H130.663V23.6644H144.527ZM149.777 21.4648C149.777 19.3615 150.173 17.5574 150.964 16.0524C151.774 14.528 152.932 13.3703 154.437 12.5792C155.942 11.7688 157.737 11.3635 159.821 11.3635C161.905 11.3635 163.699 11.7688 165.204 12.5792C166.709 13.3703 167.857 14.528 168.648 16.0524C169.459 17.5574 169.864 19.3615 169.864 21.4648V32.0001H163.033V21.4648C163.033 20.2298 162.744 19.2651 162.165 18.5704C161.605 17.8758 160.824 17.5285 159.821 17.5285C158.817 17.5285 158.026 17.8758 157.447 18.5704C156.888 19.2651 156.608 20.2298 156.608 21.4648V32.0001H149.777V21.4648ZM179.022 11.7398V32.0001H172.191V11.7398H179.022Z" fill="black"/>
<path d="M31.9721 0L42.0101 10.038C48.2289 16.2568 48.2289 26.3394 42.0101 32.5582V32.5582L20.7121 11.2601L31.9721 0Z" fill="#04D68A"/>
<path d="M11.2601 8.92708L32.5582 30.2252L21.2981 41.4852L11.2601 31.4472C5.04131 25.2285 5.04131 15.1458 11.2601 8.92708V8.92708Z" fill="#F46400"/>
</svg>
