<svg width="132" height="134" viewBox="0 0 132 134" fill="none" xmlns="http://www.w3.org/2000/svg">
<path d="M130.66 96.8687L126.776 94.9194V74.217C128.185 73.7061 129.271 72.5595 129.705 71.1254C130.14 69.6902 129.872 68.1357 128.983 66.9281C128.095 65.7207 126.69 65.0031 125.191 64.9909H96.3722C96.5568 64.4833 96.653 63.9471 96.6574 63.4064C96.6552 62.4245 96.349 61.4692 95.7817 60.6686C95.2134 59.8681 94.4128 59.2633 93.4873 58.936V33.4778L95.9442 34.714V34.7151C96.7227 35.0723 97.6437 34.7472 98.0252 33.9798C98.4067 33.2136 98.1103 32.2825 97.3551 31.8767L93.4874 29.9274V9.22497C94.8961 8.71413 95.9819 7.5686 96.4165 6.13336C96.8511 4.69925 96.5835 3.14364 95.6956 1.9361C94.8066 0.728662 93.4012 0.0110395 91.902 0H38.0067C36.5074 0.0110573 35.1019 0.728662 34.2142 1.9361C33.3253 3.14353 33.0577 4.69927 33.4922 6.13336C33.9268 7.56857 35.0126 8.7141 36.4213 9.22497V58.9365C35.497 59.2638 34.6953 59.8687 34.1281 60.6692C33.5608 61.4697 33.2546 62.4251 33.2512 63.4069C33.2557 63.9476 33.3519 64.4839 33.5365 64.9914H4.71784C3.21959 65.0036 1.81305 65.7212 0.925362 66.9287C0.0363735 68.1361 -0.230102 69.6907 0.204429 71.1259C0.638987 72.56 1.72369 73.7067 3.13357 74.2175V123.929C1.72377 124.44 0.639072 125.585 0.204429 127.021C-0.23013 128.455 0.0363593 130.01 0.925362 131.218C1.81325 132.425 3.21973 133.143 4.71784 133.154H58.6131C60.1113 133.143 61.5179 132.425 62.4056 131.218C63.2945 130.011 63.5621 128.455 63.1276 127.021C62.693 125.586 61.6072 124.44 60.1973 123.929V98.471L62.6542 99.7072C63.4326 100.065 64.3548 99.7392 64.7363 98.973C65.1167 98.2056 64.8203 97.2746 64.0651 96.8699L60.1973 94.9205V74.2181C61.1228 73.8908 61.9245 73.286 62.4917 72.4855C63.0589 71.6849 63.3652 70.7296 63.3686 69.7477C63.3641 69.207 63.2668 68.6707 63.0833 68.1632H66.8404H66.8393C66.6546 68.6707 66.5584 69.207 66.554 69.7477C66.5573 70.7296 66.8636 71.6849 67.4309 72.4855C67.9981 73.286 68.7997 73.8908 69.7241 74.2181V123.93C68.3154 124.441 67.2296 125.586 66.795 127.021C66.3604 128.455 66.628 130.011 67.5159 131.219C68.4049 132.426 69.8103 133.144 71.3095 133.155H125.205C126.704 133.144 128.11 132.426 128.998 131.219C129.886 130.011 130.154 128.455 129.719 127.021C129.285 125.586 128.199 124.441 126.79 123.93V98.4715L129.247 99.7077C130.026 100.066 130.947 99.7398 131.328 98.9735C131.71 98.2062 131.413 97.2751 130.658 96.8704L130.66 96.8687ZM39.5925 19.0207H55.444V38.0423H39.5925V19.0207ZM36.4224 63.405H36.4213C36.4213 62.5293 37.1312 61.8194 38.0069 61.8194C38.4271 61.8194 38.8307 61.6524 39.1281 61.355C39.4256 61.0576 39.5925 60.6551 39.5925 60.2349V41.2122H57.0298H57.0287C57.4489 41.2122 57.8524 41.0453 58.1499 40.749C58.4473 40.4515 58.6143 40.0479 58.6143 39.6278V17.435C58.6143 17.0149 58.4473 16.6124 58.1499 16.315C57.8524 16.0175 57.4488 15.8506 57.0287 15.8506H39.5914L39.5925 9.50939H61.7841C62.6599 9.50939 63.3697 8.80063 63.3697 7.92489C63.3697 7.04915 62.6599 6.33928 61.7841 6.33928H38.4824C38.4038 6.33376 38.3242 6.33376 38.2446 6.33928C38.165 6.33376 38.0865 6.33376 38.0069 6.33928C37.1312 6.33928 36.4213 5.62942 36.4213 4.75478C36.4213 3.87904 37.1312 3.16917 38.0069 3.16917H91.9021C92.7779 3.16917 93.4877 3.87904 93.4877 4.75478C93.4877 5.62939 92.7779 6.33928 91.9021 6.33928H85.5621C84.6863 6.33928 83.9765 7.04915 83.9765 7.92489C83.9765 8.80063 84.6863 9.50939 85.5621 9.50939H90.3178V28.3419L65.6681 16.0088C65.29 15.8065 64.8466 15.7655 64.4374 15.896C64.0294 16.0254 63.6911 16.3162 63.4998 16.6999C63.3085 17.0847 63.282 17.5292 63.4246 17.9339C63.5672 18.3385 63.868 18.6669 64.2572 18.8461L90.3177 31.8925V58.6496H50.6889C49.8131 58.6496 49.1032 59.3594 49.1032 60.2352C49.1032 61.1098 49.8131 61.8197 50.6889 61.8197H91.9029H91.9018C92.7775 61.8197 93.4874 62.5296 93.4874 63.4053C93.4874 64.281 92.7775 64.9898 91.9018 64.9898H38.0065C37.1308 64.9898 36.4209 64.281 36.4209 63.4053L36.4224 63.405ZM6.30453 84.0123H22.1561L22.155 103.034H6.30342L6.30453 84.0123ZM60.1998 69.7465L60.1986 69.7454C60.1986 70.1656 60.0317 70.5692 59.7354 70.8666C59.4379 71.164 59.0343 71.331 58.6142 71.331H52.273C51.3984 71.331 50.6885 72.0408 50.6885 72.9155C50.6885 73.7912 51.3984 74.5011 52.273 74.5011H57.0287V93.3324L32.3802 81.0005C32.002 80.797 31.5575 80.7561 31.1495 80.8866C30.7404 81.0171 30.402 81.3079 30.2118 81.6916C30.0206 82.0753 29.9929 82.5208 30.1355 82.9244C30.2793 83.3291 30.5789 83.6587 30.9693 83.8378L57.0286 96.883V123.641H17.3998C16.524 123.641 15.8153 124.35 15.8153 125.226C15.8153 126.102 16.524 126.811 17.3998 126.811H58.6138C59.4895 126.811 60.1983 127.521 60.1983 128.396C60.1983 129.272 59.4895 129.981 58.6138 129.981H4.71854C3.84393 129.981 3.13404 129.272 3.13404 128.396C3.13404 127.521 3.84391 126.811 4.71854 126.811C5.13983 126.811 5.54231 126.644 5.83973 126.347C6.13717 126.05 6.30412 125.646 6.30412 125.226V106.204H23.7414C24.1616 106.204 24.564 106.037 24.8615 105.74C25.1589 105.442 25.3258 105.04 25.3258 104.619V82.4271C25.3258 82.0069 25.1589 81.6033 24.8615 81.3059C24.564 81.0084 24.1615 80.8415 23.7414 80.8415H6.30412V74.5014H28.4957C29.3714 74.5014 30.0813 73.7916 30.0813 72.9158C30.0813 72.0412 29.3714 71.3313 28.4957 71.3313H5.19394C5.11544 71.3247 5.03583 71.3247 4.95622 71.3313C4.87771 71.3247 4.7981 71.3247 4.71849 71.3313C3.84388 71.3313 3.13399 70.6215 3.13399 69.7457C3.13399 68.87 3.84385 68.1612 4.71849 68.1612H58.6137C59.0339 68.1612 59.4375 68.3282 59.7349 68.6245C60.0312 68.922 60.1982 69.3256 60.1982 69.7457L60.1998 69.7465ZM72.8813 84.0123H88.7328L88.7317 103.034H72.8802L72.8813 84.0123ZM123.606 123.641H83.9773C83.1027 123.641 82.3928 124.35 82.3928 125.226C82.3928 126.101 83.1027 126.811 83.9773 126.811H125.191C126.067 126.811 126.777 127.521 126.777 128.396C126.777 129.271 126.067 129.981 125.191 129.981H71.2961C70.4204 129.981 69.7105 129.271 69.7105 128.396C69.7105 127.521 70.4204 126.811 71.2961 126.811C71.7163 126.811 72.1187 126.644 72.4162 126.347C72.7136 126.049 72.8806 125.646 72.8806 125.226V106.204H90.3178C90.738 106.204 91.1416 106.037 91.439 105.74C91.7354 105.442 91.9023 105.04 91.9023 104.619V82.4269C91.9023 82.0068 91.7354 81.6032 91.439 81.3058C91.1416 81.0083 90.738 80.8414 90.3178 80.8414H72.8806V74.5013H95.0733C95.9479 74.5013 96.6578 73.7915 96.6578 72.9157C96.6578 72.0411 95.9479 71.3312 95.0733 71.3312H71.7715C71.619 71.3942 71.4476 71.3942 71.2961 71.3312C70.4203 71.3312 69.7105 70.6213 69.7105 69.7456C69.7105 68.8699 70.4203 68.1611 71.2961 68.1611H125.191C126.067 68.1611 126.777 68.8699 126.777 69.7456C126.777 70.6213 126.067 71.3312 125.191 71.3312H118.851C117.976 71.3312 117.266 72.0411 117.266 72.9157C117.266 73.7915 117.976 74.5013 118.851 74.5013H123.607L123.606 93.3327L98.9573 81.0007C98.5792 80.7973 98.1358 80.7564 97.7267 80.8868C97.3175 81.0173 96.9792 81.3081 96.789 81.6918C96.5977 82.0755 96.5701 82.5211 96.7138 82.9247C96.8565 83.3294 97.1572 83.6589 97.5464 83.838L123.606 96.8833L123.606 123.641Z" fill="#ECECEC"/>
</svg>
