<svg width="27" height="27" viewBox="0 0 27 27" fill="none" xmlns="http://www.w3.org/2000/svg">
<path d="M11.9421 24.2424C11.9421 25.2132 11.1546 26.0001 10.1833 26.0001C9.21234 26.0001 8.4248 25.2132 8.4248 24.2424C8.4248 23.2715 9.21234 22.4846 10.1833 22.4846C11.1546 22.4846 11.9421 23.2715 11.9421 24.2424Z" fill="black"/>
<path d="M23.2758 24.2424C23.2758 25.2132 22.4886 26.0001 21.5173 26.0001C20.546 26.0001 19.7588 25.2132 19.7588 24.2424C19.7588 23.2715 20.546 22.4846 21.5173 22.4846C22.4886 22.4846 23.2758 23.2715 23.2758 24.2424Z" fill="black"/>
<path d="M2.56285 4.1251H3.61808C3.96973 4.1251 4.24342 4.35943 4.36067 4.67196L8.19043 16.1563C8.81577 18.0702 10.6133 19.3593 12.6455 19.3593H19.0936C21.0866 19.3593 22.8843 18.1092 23.5097 16.1953L25.8546 9.43758C26.3235 8.10953 25.6202 6.66401 24.2916 6.23432C24.0569 6.11715 23.7834 6.07819 23.4708 6.07819H8.11234L7.33081 3.65639C6.78371 2.09375 5.29858 1 3.61829 1H2.56306C1.7033 1 1 1.70298 1 2.56236C1 3.42173 1.7033 4.125 2.56306 4.125L2.56285 4.1251ZM22.6499 9.20301L20.5787 15.1796C20.3443 15.8046 19.7582 16.2343 19.0936 16.2343H12.6455C11.9812 16.2343 11.3948 15.8046 11.1604 15.1796L9.16743 9.20301H22.6499Z" fill="black"/>
</svg>
