<svg width="21" height="19" viewBox="0 0 21 19" fill="none" xmlns="http://www.w3.org/2000/svg">
<path d="M0 1.95981C0 2.35768 0.157999 2.73909 0.439464 3.02054C0.720668 3.30174 1.10232 3.45974 1.5002 3.45974H19.5007C20.0366 3.45974 20.5318 3.17383 20.7999 2.7098C21.0678 2.24575 21.0678 1.67391 20.7999 1.20991C20.5318 0.745856 20.0366 0.459961 19.5007 0.459961H1.5002C1.10233 0.459961 0.720654 0.617959 0.439464 0.899159C0.157999 1.18062 0 1.56201 0 1.95989V1.95981Z" fill="black"/>
<path d="M19.5006 7.95972H1.50017C0.964183 7.95972 0.46903 8.24563 0.200898 8.70967C-0.066966 9.17372 -0.066966 9.74556 0.200898 10.2096C0.469023 10.6736 0.964176 10.9595 1.50017 10.9595H19.5006C20.0366 10.9595 20.5318 10.6736 20.7999 10.2096C21.0678 9.74551 21.0678 9.17367 20.7999 8.70967C20.5318 8.24561 20.0366 7.95972 19.5006 7.95972Z" fill="black"/>
<path d="M19.5006 15.4602H1.50017C0.964183 15.4602 0.46903 15.7461 0.200898 16.2102C-0.066966 16.6742 -0.066966 17.246 0.200898 17.71C0.469023 18.1741 0.964176 18.46 1.50017 18.46H19.5006C20.0366 18.46 20.5318 18.1741 20.7999 17.71C21.0678 17.246 21.0678 16.6742 20.7999 16.2102C20.5318 15.7461 20.0366 15.4602 19.5006 15.4602Z" fill="black"/>
</svg>
