<svg width="27" height="18" viewBox="0 0 27 18" fill="none" xmlns="http://www.w3.org/2000/svg">
<path d="M27 1.49985C27 1.89772 26.842 2.27912 26.5605 2.56058C26.2793 2.84178 25.8977 2.99978 25.4998 2.99978H7.49935C6.96336 2.99978 6.46821 2.71387 6.20007 2.24983C5.93221 1.78578 5.93221 1.21395 6.20007 0.749945C6.4682 0.285895 6.96335 0 7.49935 0H25.4998C25.8977 0 26.2793 0.157998 26.5605 0.439198C26.842 0.72066 27 1.10205 27 1.49993V1.49985Z" fill="black"/>
<path d="M12.1429 7.49976H25.8571C26.2654 7.49976 26.6427 7.78567 26.8469 8.24971C27.051 8.71376 27.051 9.2856 26.8469 9.7496C26.6427 10.2137 26.2654 10.4996 25.8571 10.4996H12.1429C11.7346 10.4996 11.3573 10.2136 11.1531 9.7496C10.949 9.28555 10.949 8.71371 11.1531 8.24971C11.3573 7.78565 11.7346 7.49976 12.1429 7.49976Z" fill="black"/>
<path d="M2 3.54004L7.5 9.04004L2 14.54" stroke="black" stroke-width="3" stroke-linecap="round" stroke-linejoin="round"/>
<path d="M7.49938 15.0002H25.4998C26.0358 15.0002 26.531 15.2862 26.7991 15.7502C27.067 16.2142 27.067 16.7861 26.7991 17.2501C26.531 17.7141 26.0358 18 25.4998 18H7.49938C6.96339 18 6.46824 17.7141 6.2001 17.2501C5.93224 16.786 5.93224 16.2142 6.2001 15.7502C6.46823 15.2861 6.96338 15.0002 7.49938 15.0002Z" fill="black"/>
</svg>
